<svg xmlns="http://www.w3.org/2000/svg" width="700" height="500" viewBox="0 0 700 500" font-family="-apple-system, BlinkMacSystemFont, 'Segoe UI', Roboto, 'Helvetica Neue', Arial, sans-serif" font-size="14">
  <defs>
    <style>
      .bg { fill: #f9fafb; }
      .title { font-size: 18px; font-weight: 600; fill: #111827; text-anchor: middle; }
      .header { font-weight: 600; fill: #1f2937; }
      .cell { fill: #ffffff; stroke: #e5e7eb; }
      .key-cell { fill: #f3f4f6; }
      .text { fill: #374151; }
      .code { font-family: 'Courier New', Courier, monospace; fill: #1e40af; font-size: 13px; }
      .desc { fill: #6b7280; font-size: 12px; }
    </style>
  </defs>

  <rect width="100%" height="100%" class="bg" />

  <text x="350" y="40" class="title">"Database" Architecture (Browser Local Storage)</text>

  <g transform="translate(30, 80)">
    <!-- Table Header -->
    <rect x="0" y="0" width="640" height="40" fill="#e5e7eb" stroke="#d1d5db" />
    <text x="120" y="25" class="header" text-anchor="middle">Local Storage Key</text>
    <text x="440" y="25" class="header" text-anchor="middle">Value (Stored as JSON String)</text>

    <!-- Row 1: compliance-progress -->
    <rect x="0" y="40" width="640" height="100" class="cell" />
    <rect x="0" y="40" width="240" height="100" class="key-cell" />
    <text x="20" y="85" class="code">compliance-progress</text>
    <line x1="0" y1="140" x2="640" y2="140" stroke="#e5e7eb" />
    <text x="260" y="65" class="text">Object mapping phase IDs to their status.</text>
    <text x="260" y="90" class="code" xml:space="preserve">
      {
        [phaseId: string]: 'complete' | 'in-progress' | 'blocked'
      }
    </text>
    <text x="260" y="125" class="desc">Example: { "std-1": "complete", "std-2": "in-progress" }</text>

    <!-- Row 2: compliance-theme -->
    <rect x="0" y="140" width="640" height="80" class="cell" />
    <rect x="0" y="140" width="240" height="80" class="key-cell" />
    <text x="20" y="180" class="code">compliance-theme</text>
    <line x1="0" y1="220" x2="640" y2="220" stroke="#e5e7eb" />
    <text x="260" y="165" class="text">Stores the user's selected UI theme.</text>
    <text x="260" y="190" class="code">'light' | 'dark' | 'high-contrast'</text>
    <text x="260" y="210" class="desc">Example: "dark"</text>

    <!-- Row 3: admin-password-hash -->
    <rect x="0" y="220" width="640" height="80" class="cell" />
    <rect x="0" y="220" width="240" height="80" class="key-cell" />
    <text x="20" y="260" class="code">admin-password-hash</text>
    <line x1="0" y1="300" x2="640" y2="300" stroke="#e5e7eb" />
    <text x="260" y="245" class="text">SHA-256 hash of the admin password.</text>
    <text x="260" y="270" class="code">string | null</text>
    <text x="260" y="290" class="desc">Example: "a591a6d40bf420404a011733cfb7b190..."</text>

    <!-- Row 4: admin-audit-log -->
    <rect x="0" y="300" width="640" height="100" class="cell" />
    <rect x="0" y="300" width="240" height="100" class="key-cell" />
    <text x="20" y="350" class="code">admin-audit-log</text>
    <line x1="0" y1="400" x2="640" y2="400" stroke="#e5e7eb" />
    <text x="260" y="325" class="text">An array of audit log entries.</text>
    <text x="260" y="350" class="code" xml:space="preserve">
      Array&lt;{
        timestamp: string,
        action: string
      }&gt;
    </text>
    <text x="260" y="385" class="desc">Example: [{ timestamp: "...", action: "Admin logged in." }]</text>
  </g>
</svg>