<svg xmlns="http://www.w3.org/2000/svg" width="800" height="400" viewBox="0 0 800 400" font-family="-apple-system, BlinkMacSystemFont, 'Segoe UI', Roboto, 'Helvetica Neue', Arial, sans-serif" font-size="14">
  <defs>
    <style>
      .bg { fill: #f9fafb; }
      .title { font-size: 20px; font-weight: 600; fill: #111827; text-anchor: middle; }
      .box { fill: #ffffff; stroke: #d1d5db; stroke-width: 1.5; rx: 8; }
      .box-title { font-weight: 600; fill: #374151; }
      .arrow { fill: none; stroke: #4f46e5; stroke-width: 2; marker-end: url(#arrowhead); }
      .arrow-dashed { stroke-dasharray: 6 4; }
      .arrow-label { fill: #4338ca; font-size: 13px; font-weight: 500; text-anchor: middle; }
    </style>
    <marker id="arrowhead" viewBox="0 0 10 10" refX="8" refY="5" markerWidth="6" markerHeight="6" orient="auto-start-reverse">
      <path d="M 0 0 L 10 5 L 0 10 z" fill="#4f46e5"/>
    </marker>
  </defs>

  <rect width="100%" height="100%" class="bg"/>
  <text x="400" y="45" class="title">High-Level System Architecture</text>

  <!-- User -->
  <g transform="translate(50, 155)">
    <circle cx="50" cy="50" r="40" fill="#e0e7ff" stroke="#a5b4fc"/>
    <text x="50" y="55" text-anchor="middle" font-weight="600" fill="#3730a3">User</text>
  </g>
  
  <!-- Browser Box -->
  <rect x="200" y="90" width="300" height="220" class="box"/>
  <text x="350" y="120" text-anchor="middle" class="box-title">Web Browser</text>
  <line x1="210" y1="135" x2="490" y2="135" stroke="#e5e7eb"/>
  
  <!-- React App -->
  <rect x="225" y="150" width="250" height="70" fill="#d1fae5" stroke="#6ee7b7" rx="6"/>
  <text x="350" y="185" text-anchor="middle" font-weight="500" fill="#065f46">React App (UI & Logic)</text>
  
  <!-- Local Storage -->
  <rect x="225" y="230" width="250" height="60" fill="#fef3c7" stroke="#fcd34d" rx="6"/>
  <text x="350" y="260" text-anchor="middle" font-weight="500" fill="#92400e">Local Storage</text>

  <!-- Gemini API -->
  <g transform="translate(580, 155)">
    <rect x="0" y="10" width="180" height="80" fill="#fee2e2" stroke="#fca5a5" rx="6"/>
    <text x="90" y="45" text-anchor="middle" font-weight="500" fill="#991b1b">Google Gemini API</text>
    <text x="90" y="65" text-anchor="middle" font-size="12" fill="#b91c1c">(for Self-Testing)</text>
  </g>

  <!-- Arrows -->
  <path d="M 145 205 H 195" class="arrow"/>
  <text x="170" y="195" class="arrow-label">Interacts</text>

  <path d="M 350 220 V 230" class="arrow"/>
  <text x="375" y="228" class="arrow-label">Writes</text>
  
  <path d="M 320 230 V 220" class="arrow"/>
  <text x="295" y="228" class="arrow-label">Reads</text>

  <path d="M 475 185 H 575" class="arrow arrow-dashed"/>
  <text x="525" y="175" class="arrow-label">API Call</text>
  
  <path d="M 575 205 H 475" class="arrow arrow-dashed"/>
  <text x="525" y="220" class="arrow-label">Test Results</text>
</svg>