<svg xmlns="http://www.w3.org/2000/svg" width="800" height="600" viewBox="0 0 800 600" font-family="-apple-system, BlinkMacSystemFont, 'Segoe UI', Roboto, 'Helvetica Neue', Arial, sans-serif" font-size="14">
  <defs>
    <style>
      .actor-style { fill: #fff; stroke: #2d3748; stroke-width: 2; }
      .use-case-style { fill: #ebf8ff; stroke: #90cdf4; stroke-width: 2; rx: 20; }
      .text-style { fill: #2d3748; text-anchor: middle; }
      .actor-text { font-weight: 600; }
      .line-style { stroke: #4a5568; stroke-width: 1.5; }
      .system-boundary { fill: none; stroke: #cbd5e0; stroke-width: 2; stroke-dasharray: 8 4; }
    </style>
  </defs>
  <rect x="250" y="50" width="500" height="500" class="system-boundary"/>
  <text x="500" y="80" class="text-style" font-size="18" font-weight="bold">Compliance Dashboard System</text>
  <!-- Actors -->
  <g id="user-actor">
    <circle cx="100" cy="200" r="20" class="actor-style"/>
    <line x1="100" y1="220" x2="100" y2="260" class="actor-style"/>
    <line x1="100" y1="230" x2="80" y2="245" class="actor-style"/>
    <line x1="100" y1="230" x2="120" y2="245" class="actor-style"/>
    <line x1="100" y1="260" x2="80" y2="290" class="actor-style"/>
    <line x1="100" y1="260" x2="120" y2="290" class="actor-style"/>
    <text x="100" y="315" class="text-style actor-text">User</text>
  </g>
  <g id="admin-actor" transform="translate(0, 200)">
    <circle cx="100" cy="200" r="20" class="actor-style"/>
    <line x1="100" y1="220" x2="100" y2="260" class="actor-style"/>
    <line x1="100" y1="230" x2="80" y2="245" class="actor-style"/>
    <line x1="100" y1="230" x2="120" y2="245" class="actor-style"/>
    <line x1="100" y1="260" x2="80" y2="290" class="actor-style"/>
    <line x1="100" y1="260" x2="120" y2="290" class="actor-style"/>
    <text x="100" y="315" class="text-style actor-text">Administrator</text>
  </g>
  <!-- Inheritance -->
  <line x1="100" y1="330" x2="100" y2="380" class="line-style"/>
  <line x1="100" y1="380" x2="140" y2="380" class="line-style"/>
  <path d="M140 375 L 150 380 L 140 385 Z" fill="#fff" stroke="#4a5568" stroke-width="1.5"/>
  <text x="120" y="360" class="text-style" font-size="12">(is a)</text>

  <!-- User Use Cases -->
  <rect x="350" y="100" width="180" height="40" class="use-case-style"/>
  <text x="440" y="125" class="text-style">Select Framework</text>
  <line x1="150" y1="230" x2="350" y2="120" class="line-style"/>

  <rect x="350" y="160" width="180" height="40" class="use-case-style"/>
  <text x="440" y="185" class="text-style">Track Phase Progress</text>
  <line x1="150" y1="230" x2="350" y2="180" class="line-style"/>
  
  <rect x="350" y="220" width="180" height="40" class="use-case-style"/>
  <text x="440" y="245" class="text-style">Copy Directive</text>
  <line x1="150" y1="230" x2="350" y2="240" class="line-style"/>

  <rect x="350" y="280" width="180" height="40" class="use-case-style"/>
  <text x="440" y="305" class="text-style">Change Theme</text>
  <line x1="150" y1="230" x2="350" y2="300" class="line-style"/>

  <rect x="350" y="340" width="180" height="40" class="use-case-style"/>
  <text x="440" y="365" class="text-style">Run Self-Test</text>
  <line x1="150" y1="230" x2="350" y2="360" class="line-style"/>

  <!-- Admin Use Cases -->
  <rect x="550" y="420" width="180" height="40" class="use-case-style"/>
  <text x="640" y="445" class="text-style">Manage Password</text>
  <line x1="150" y1="430" x2="550" y2="440" class="line-style"/>

  <rect x="550" y="480" width="180" height="40" class="use-case-style"/>
  <text x="640" y="505" class="text-style">View/Clear Audit Log</text>
  <line x1="150" y1="430" x2="550" y2="500" class="line-style"/>
</svg>