<svg xmlns="http://www.w3.org/2000/svg" viewBox="0 0 800 600" width="100%" height="100%" style="background-color: #0d0d10; font-family: monospace;">
  <defs>
    <linearGradient id="primary" x1="0%" y1="0%" x2="100%" y2="100%">
      <stop offset="0%" stop-color="#4f46e5" />
      <stop offset="100%" stop-color="#7c3aed" />
    </linearGradient>
  </defs>

  <rect x="100" y="50" width="600" height="80" rx="10" fill="#18181b" stroke="#3f3f46" stroke-width="2" />
  <text x="400" y="95" fill="#e4e4e7" font-size="20" font-weight="bold" text-anchor="middle">React 19.2.5 + Vite Runtime</text>
  
  <line x1="400" y1="130" x2="400" y2="180" stroke="#4f46e5" stroke-width="3" stroke-dasharray="5,5" />

  <rect x="250" y="180" width="300" height="100" rx="10" fill="url(#primary)" />
  <text x="400" y="235" fill="#ffffff" font-size="24" font-weight="bold" text-anchor="middle">Animator Interface</text>

  <line x1="250" y1="230" x2="150" y2="230" stroke="#4f46e5" stroke-width="3" />
  <rect x="50" y="200" width="100" height="60" rx="6" fill="#111113" stroke="#3f3f46" stroke-width="2" />
  <text x="100" y="235" fill="#a1a1aa" font-size="14" text-anchor="middle">Puppeteer</text>

  <line x1="400" y1="280" x2="250" y2="350" stroke="#4f46e5" stroke-width="3" />
  <line x1="400" y1="280" x2="550" y2="350" stroke="#4f46e5" stroke-width="3" />

  <rect x="150" y="350" width="200" height="80" rx="8" fill="#18181b" stroke="#4f46e5" stroke-width="2" />
  <text x="250" y="395" fill="#e4e4e7" font-size="16" font-weight="bold" text-anchor="middle">Keyframe Timeline</text>

  <rect x="450" y="350" width="200" height="80" rx="8" fill="#18181b" stroke="#4f46e5" stroke-width="2" />
  <text x="550" y="395" fill="#e4e4e7" font-size="16" font-weight="bold" text-anchor="middle">Claudia SVG Env</text>

  <rect x="250" y="480" width="300" height="70" rx="10" fill="#09090b" stroke="#ef4444" stroke-width="2" />
  <text x="400" y="520" fill="#ef4444" font-size="16" font-weight="bold" text-anchor="middle">/admin (Auth Protected)</text>
</svg>
