<svg width="800" height="500" viewBox="0 0 800 500" fill="none" xmlns="http://www.w3.org/2000/svg">
  <rect width="800" height="500" rx="16" fill="#111827"/>
  <defs>
    <linearGradient id="grad1" x1="0%" y1="0%" x2="100%" y2="100%">
      <stop offset="0%" style="stop-color:#374151;stop-opacity:1" />
      <stop offset="100%" style="stop-color:#111827;stop-opacity:1" />
    </linearGradient>
    <marker id="arrow" viewBox="0 0 10 10" refX="5" refY="5" markerWidth="6" markerHeight="6" orient="auto-start-reverse">
      <path d="M 0 0 L 10 5 L 0 10 z" fill="#9CA3AF" />
    </marker>
  </defs>
  <text x="400" y="40" text-anchor="middle" fill="#D4AF37" font-family="Arial" font-size="24" font-weight="bold">System Architecture - Patois Lyricist v1.1</text>
  <rect x="40" y="80" width="480" height="380" rx="12" stroke="#4B5563" stroke-width="2" stroke-dasharray="8 4" fill="url(#grad1)"/>
  <text x="50" y="105" fill="#9CA3AF" font-family="Arial" font-size="12" font-weight="bold">BROWSER ENVIRONMENT (CLIENT)</text>
  <rect x="80" y="130" width="400" height="100" rx="8" fill="#1F2937" stroke="#D4AF37" stroke-width="2"/>
  <text x="280" y="165" text-anchor="middle" fill="#F3F4F6" font-family="Arial" font-size="16" font-weight="bold">React SPA Layer</text>
  <text x="280" y="185" text-anchor="middle" fill="#9CA3AF" font-family="Arial" font-size="12">Identity Verification • Riddim Laboratory UI</text>
  <rect x="80" y="260" width="180" height="150" rx="8" fill="#111827" stroke="#10B981" stroke-width="2"/>
  <text x="170" y="290" text-anchor="middle" fill="#F3F4F6" font-family="Arial" font-size="14" font-weight="bold">Logic Services</text>
  <rect x="300" y="260" width="180" height="150" rx="8" fill="#111827" stroke="#3B82F6" stroke-width="2"/>
  <text x="390" y="290" text-anchor="middle" fill="#F3F4F6" font-family="Arial" font-size="14" font-weight="bold">SOC 2 Governance</text>
  <rect x="560" y="130" width="200" height="100" rx="8" fill="#1F2937" stroke="#EF4444" stroke-width="2"/>
  <text x="660" y="170" text-anchor="middle" fill="#F3F4F6" font-family="Arial" font-size="16" font-weight="bold">Gemini 3 Pro API</text>
  <path d="M 560 260 L 760 260 L 760 410 L 560 410 Z" fill="#1F2937" stroke="#FCD116" stroke-width="2"/>
  <text x="660" y="300" text-anchor="middle" fill="#F3F4F6" font-family="Arial" font-size="16" font-weight="bold">LocalStorage</text>
  <line x1="170" y1="230" x2="170" y2="255" stroke="#9CA3AF" stroke-width="2" marker-end="url(#arrow)"/>
  <line x1="390" y1="230" x2="390" y2="255" stroke="#9CA3AF" stroke-width="2" marker-end="url(#arrow)"/>
  <line x1="480" y1="180" x2="555" y2="180" stroke="#EF4444" stroke-width="2" stroke-dasharray="4" marker-end="url(#arrow)"/>
  <line x1="480" y1="335" x2="555" y2="335" stroke="#3B82F6" stroke-width="2" marker-end="url(#arrow)"/>
</svg>