<svg xmlns="http://www.w3.org/2000/svg" viewBox="0 0 800 500">
  <defs>
    <style>
      .bg { fill: #ffffff; }
      .db { fill: #F8FAFC; stroke: #4F46E5; stroke-width: 2; rx: 8; }
      .text-title { fill: #1e1b4b; font-family: Inter, serif; font-size: 20px; font-weight: bold; text-anchor: middle; }
      .text-field { fill: #475569; font-family: monospace; font-size: 11px; }
      .line { stroke: #4F46E5; stroke-width: 2; fill: none; }
    </style>
    <marker id="arrowhead" markerWidth="10" markerHeight="7" refX="9" refY="3.5" orient="auto">
      <polygon points="0 0, 10 3.5, 0 7" fill="#4F46E5" />
    </marker>
  </defs>

  <rect width="1000" height="600" class="bg" />

  <text x="400" y="40" fill="#1e1b4b" font-family="Inter" font-size="24" font-weight="bold" text-anchor="middle" letter-spacing="2">DATA ARCHITECTURE &amp; ANALYTICAL FLOW</text>
  <text x="400" y="60" fill="#64748b" font-family="Inter" font-size="10" text-anchor="middle" letter-spacing="2">ADVANCED ANALYTICS DASHBOARD v3.0.0</text>

  <!-- Raw Data -->
  <rect x="50" y="100" width="220" height="350" class="db" />
  <rect x="50" y="100" width="220" height="40" fill="#4F46E5" rx="8" />
  <rect x="50" y="120" width="220" height="20" fill="#4F46E5" />
  <text x="160" y="125" fill="#fff" font-family="Inter" font-size="14" font-weight="bold" text-anchor="middle">Raw Data (JSON)</text>
  
  <text x="70" y="170" class="text-field" font-weight="bold">record:</text>
  <text x="90" y="190" class="text-field">MONTH: YYYY-MM</text>
  <text x="90" y="210" class="text-field">SIGNUPS: number</text>
  <text x="90" y="230" class="text-field">APPLICANTS: number</text>
  <text x="90" y="250" class="text-field">ACCEPTED: number</text>
  <text x="90" y="270" class="text-field">REGISTERED: number</text>
  
  <text x="70" y="310" class="text-field" font-weight="bold">validation:</text>
  <text x="90" y="330" class="text-field">validateDataIntegrity()</text>
  <text x="90" y="350" class="text-field">checkNumericFields()</text>

  <!-- Transformation -->
  <rect x="350" y="220" width="100" height="40" fill="#1e1b4b" rx="20" />
  <text x="400" y="245" fill="#fff" font-family="Inter" font-size="10" text-anchor="middle" letter-spacing="1">PROCESS</text>

  <!-- Processed Data -->
  <rect x="530" y="120" width="240" height="310" class="db" />
  <rect x="530" y="120" width="240" height="40" fill="#1e1b4b" rx="8" />
  <rect x="530" y="140" width="240" height="20" fill="#1e1b4b" />
  <text x="650" y="145" fill="#818cf8" font-family="Inter" font-size="14" font-weight="bold" text-anchor="middle">Processed Metrics</text>

  <text x="550" y="190" class="text-field" font-weight="bold">yearlyData:</text>
  <text x="570" y="210" class="text-field">{ year, signups, rate, ... }</text>
  
  <text x="550" y="240" class="text-field" font-weight="bold">funnelData:</text>
  <text x="570" y="260" class="text-field">{ signups, appRate, ... }</text>
  
  <text x="550" y="290" class="text-field" font-weight="bold">trends:</text>
  <text x="570" y="310" class="text-field">{ growth, conversionTrend }</text>

  <text x="550" y="340" class="text-field" font-weight="bold">allTimeStats:</text>
  <text x="570" y="360" class="text-field">{ totalSignups, avgRate, ... }</text>

  <!-- Connectors -->
  <path d="M 270 240 L 340 240" class="line" marker-end="url(#arrowhead)" />
  <path d="M 450 240 L 520 240" class="line" marker-end="url(#arrowhead)" />

</svg>