<svg xmlns="http://www.w3.org/2000/svg" viewBox="0 0 800 600">
  <!-- Background -->
  <rect width="800" height="600" fill="#f8f9fa" />
  
  <!-- Title -->
  <text x="400" y="40" font-family="sans-serif" font-size="24" text-anchor="middle" font-weight="bold" fill="#333">AUCDT Website Replica - System Architecture</text>

  <!-- Client Browser Container -->
  <rect x="50" y="80" width="700" height="480" rx="10" fill="#fff" stroke="#333" stroke-width="2" />
  <text x="70" y="110" font-family="sans-serif" font-size="16" font-weight="bold" fill="#666">Client Browser (User)</text>

  <!-- React App Container -->
  <rect x="100" y="140" width="400" height="380" rx="8" fill="#e1f5fe" stroke="#0288d1" stroke-width="2" stroke-dasharray="5,5" />
  <text x="300" y="170" font-family="sans-serif" font-size="18" text-anchor="middle" fill="#01579b" font-weight="bold">React Application (SPA)</text>

  <!-- Components -->
  <g transform="translate(120, 200)">
    <rect width="160" height="40" rx="4" fill="#fff" stroke="#0277bd" />
    <text x="80" y="25" text-anchor="middle" font-family="sans-serif" font-size="12">App.tsx (Router/State)</text>
  </g>

  <g transform="translate(120, 260)">
    <rect width="160" height="100" rx="4" fill="#fff" stroke="#0277bd" />
    <text x="80" y="20" text-anchor="middle" font-family="sans-serif" font-size="12" font-weight="bold">Public View</text>
    <text x="80" y="40" text-anchor="middle" font-family="sans-serif" font-size="10">- Header / Footer</text>
    <text x="80" y="55" text-anchor="middle" font-family="sans-serif" font-size="10">- HeroSlider</text>
    <text x="80" y="70" text-anchor="middle" font-family="sans-serif" font-size="10">- Programmes</text>
    <text x="80" y="85" text-anchor="middle" font-family="sans-serif" font-size="10">- VirtualAssistant</text>
  </g>

  <g transform="translate(320, 260)">
    <rect width="160" height="100" rx="4" fill="#fff" stroke="#d32f2f" />
    <text x="80" y="20" text-anchor="middle" font-family="sans-serif" font-size="12" font-weight="bold">Secure View</text>
    <text x="80" y="45" text-anchor="middle" font-family="sans-serif" font-size="10">Admin Dashboard</text>
    <text x="80" y="65" text-anchor="middle" font-family="sans-serif" font-size="10">TestRunner</text>
  </g>

  <g transform="translate(220, 400)">
    <rect width="160" height="40" rx="4" fill="#fff" stroke="#2e7d32" />
    <text x="80" y="25" text-anchor="middle" font-family="sans-serif" font-size="12">Theme Engine (Tailwind)</text>
  </g>

  <!-- Local Storage -->
  <g transform="translate(550, 200)">
    <path d="M0,10 C0,4.5 20,0 50,0 C80,0 100,4.5 100,10 L100,140 C100,145.5 80,150 50,150 C20,150 0,145.5 0,140 Z" fill="#fff3e0" stroke="#ef6c00" stroke-width="2" />
    <path d="M0,10 C0,15.5 20,20 50,20 C80,20 100,15.5 100,10" fill="none" stroke="#ef6c00" stroke-width="2" />
    <text x="50" y="40" text-anchor="middle" font-family="sans-serif" font-size="14" font-weight="bold" fill="#e65100">LocalStorage</text>
    <text x="50" y="70" text-anchor="middle" font-family="sans-serif" font-size="10">Admin Password</text>
    <text x="50" y="90" text-anchor="middle" font-family="sans-serif" font-size="10">Audit Logs</text>
    <text x="50" y="110" text-anchor="middle" font-family="sans-serif" font-size="10">Theme Prefs</text>
  </g>

  <!-- External Assets -->
  <g transform="translate(550, 420)">
    <rect width="120" height="60" rx="4" fill="#f3e5f5" stroke="#7b1fa2" stroke-width="2" />
    <text x="60" y="25" text-anchor="middle" font-family="sans-serif" font-size="12" font-weight="bold" fill="#4a148c">External CDN</text>
    <text x="60" y="45" text-anchor="middle" font-family="sans-serif" font-size="10">Images / Fonts</text>
  </g>

  <!-- Connectors -->
  <path d="M500 240 L550 240" stroke="#666" stroke-width="2" marker-end="url(#arrow)" />
  <path d="M550 250 L500 250" stroke="#666" stroke-width="2" marker-end="url(#arrow)" />
  
  <path d="M480 450 L550 450" stroke="#666" stroke-width="2" stroke-dasharray="4,4" marker-end="url(#arrow)" />

  <!-- Definitions -->
  <defs>
    <marker id="arrow" markerWidth="10" markerHeight="10" refX="9" refY="3" orient="auto" markerUnits="strokeWidth">
      <path d="M0,0 L0,6 L9,3 z" fill="#666" />
    </marker>
  </defs>

</svg>