<?xml version="1.0" encoding="UTF-8"?>
<svg xmlns="http://www.w3.org/2000/svg" width="480" height="500" viewBox="0 0 480 500">
  <defs>
    <marker id="arr" markerWidth="6" markerHeight="6" refX="3" refY="3" orient="auto">
      <path d="M0,0 L6,3 L0,6 Z" fill="#94a3b8"/>
    </marker>
  </defs>
  <rect width="480" height="500" fill="#ffffff"/>
  <text x="240" y="24" text-anchor="middle"
        font-family="'Playfair Display',serif" font-size="16" font-weight="700"
        fill="#0F0C07">Educational technology and learning systems - App ID 135 — Architecture</text>
  <line x1="240" y1="84" x2="240" y2="100"
                  stroke="#94a3b8" stroke-width="1.5" marker-end="url(#arr)"/><line x1="240" y1="144" x2="240" y2="160"
                  stroke="#94a3b8" stroke-width="1.5" marker-end="url(#arr)"/><line x1="240" y1="204" x2="240" y2="220"
                  stroke="#94a3b8" stroke-width="1.5" marker-end="url(#arr)"/><line x1="240" y1="264" x2="240" y2="280"
                  stroke="#94a3b8" stroke-width="1.5" marker-end="url(#arr)"/><line x1="240" y1="324" x2="240" y2="340"
                  stroke="#94a3b8" stroke-width="1.5" marker-end="url(#arr)"/><line x1="240" y1="384" x2="240" y2="400"
                  stroke="#94a3b8" stroke-width="1.5" marker-end="url(#arr)"/>
  
    <rect x="40" y="40" width="400" height="44" rx="8"
          fill="#f8fafc" stroke="#94a3b8" stroke-width="2"/>
    <text x="240" y="67" text-anchor="middle"
          font-family="Inter,sans-serif" font-size="14" fill="#1e293b" font-weight="500">
      Browser
    </text>
    <rect x="40" y="100" width="400" height="44" rx="8"
          fill="#dbeafe" stroke="#3b82f6" stroke-width="2"/>
    <text x="240" y="127" text-anchor="middle"
          font-family="Inter,sans-serif" font-size="14" fill="#1e293b" font-weight="500">
      React 19 + TypeScript
    </text>
    <rect x="40" y="160" width="400" height="44" rx="8"
          fill="#f0fdf4" stroke="#22c55e" stroke-width="2"/>
    <text x="240" y="187" text-anchor="middle"
          font-family="Inter,sans-serif" font-size="14" fill="#1e293b" font-weight="500">
      Tailwind CSS 4
    </text>
    <rect x="40" y="220" width="400" height="44" rx="8"
          fill="#fef3c7" stroke="#f59e0b" stroke-width="2"/>
    <text x="240" y="247" text-anchor="middle"
          font-family="Inter,sans-serif" font-size="14" fill="#1e293b" font-weight="500">
      React Router DOM
    </text>
    <rect x="40" y="280" width="400" height="44" rx="8"
          fill="#fdf4ff" stroke="#a855f7" stroke-width="2"/>
    <text x="240" y="307" text-anchor="middle"
          font-family="Inter,sans-serif" font-size="14" fill="#1e293b" font-weight="500">
      Recharts 3
    </text>
    <rect x="40" y="340" width="400" height="44" rx="8"
          fill="#f1f5f9" stroke="#64748b" stroke-width="2"/>
    <text x="240" y="367" text-anchor="middle"
          font-family="Inter,sans-serif" font-size="14" fill="#1e293b" font-weight="500">
      Vite 7 + nginx:alpine
    </text>
    <rect x="40" y="400" width="400" height="44" rx="8"
          fill="#0f172a" stroke="#C8A84B" stroke-width="2"/>
    <text x="240" y="427" text-anchor="middle"
          font-family="Inter,sans-serif" font-size="14" fill="#C8A84B" font-weight="500">
      Docker  port 5173:80
    </text>
</svg>