<svg xmlns="http://www.w3.org/2000/svg" viewBox="0 0 800 400">
  <defs>
    <marker id="arrow" markerWidth="10" markerHeight="7" refX="9" refY="3.5" orient="auto">
      <polygon points="0 0, 10 3.5, 0 7" fill="#475569"/>
    </marker>
  </defs>
  <rect width="800" height="400" fill="#f8fafc"/>
  <text x="400" y="35" font-family="sans-serif" font-weight="bold" font-size="20" text-anchor="middle" fill="#0f172a">Data Flow: News Processing Lifecycle</text>
  <rect x="50" y="170" width="100" height="60" rx="8" fill="#f1f5f9" stroke="#475569" stroke-width="2"/>
  <text x="100" y="205" font-family="sans-serif" font-size="12" text-anchor="middle">News Sources</text>
  <rect x="220" y="170" width="100" height="60" rx="20" fill="#fef3c7" stroke="#d97706" stroke-width="2"/>
  <text x="270" y="205" font-family="sans-serif" font-size="12" text-anchor="middle">Aggregator</text>
  <rect x="390" y="80" width="100" height="60" rx="20" fill="#e0f2fe" stroke="#0ea5e9" stroke-width="2"/>
  <text x="440" y="115" font-family="sans-serif" font-size="12" text-anchor="middle">Gemini AI</text>
  <rect x="390" y="260" width="100" height="60" rx="8" fill="#dcfce7" stroke="#16a34a" stroke-width="2"/>
  <text x="440" y="295" font-family="sans-serif" font-size="12" text-anchor="middle">Persistence</text>
  <rect x="560" y="170" width="100" height="60" rx="20" fill="#f3e8ff" stroke="#9333ea" stroke-width="2"/>
  <text x="610" y="205" font-family="sans-serif" font-size="12" text-anchor="middle">Publisher</text>
  <rect x="680" y="170" width="100" height="60" rx="8" fill="#f1f5f9" stroke="#475569" stroke-width="2"/>
  <text x="730" y="205" font-family="sans-serif" font-size="12" text-anchor="middle">Social Media</text>
  <path d="M 150 200 L 220 200" fill="none" stroke="#475569" stroke-width="1.5" marker-end="url(#arrow)"/>
  <path d="M 270 170 L 270 110 L 390 110" fill="none" stroke="#475569" stroke-width="1.5" marker-end="url(#arrow)"/>
  <path d="M 440 140 L 440 260" fill="none" stroke="#475569" stroke-width="1.5" marker-end="url(#arrow)"/>
  <path d="M 490 290 L 610 290 L 610 230" fill="none" stroke="#475569" stroke-width="1.5" marker-end="url(#arrow)"/>
  <path d="M 660 200 L 680 200" fill="none" stroke="#475569" stroke-width="1.5" marker-end="url(#arrow)"/>
</svg>