<svg xmlns="http://www.w3.org/2000/svg" viewBox="0 0 800 500">
  <rect width="800" height="500" fill="#f8fafc"/>
  <text x="400" y="40" font-family="sans-serif" font-weight="bold" font-size="28" text-anchor="middle" fill="#0f172a">Integrated Technology Stack</text>
  <g transform="translate(50, 80)">
    <rect width="160" height="380" rx="12" fill="#e0f2fe" stroke="#0ea5e9" stroke-width="1"/>
    <text x="80" y="30" font-family="sans-serif" font-weight="bold" font-size="16" text-anchor="middle" fill="#0369a1">Frontend</text>
    <rect x="20" y="50" width="120" height="40" rx="6" fill="white" stroke="#0ea5e9"/><text x="80" y="75" font-family="sans-serif" font-size="13" text-anchor="middle">React 19</text>
    <rect x="20" y="100" width="120" height="40" rx="6" fill="white" stroke="#0ea5e9"/><text x="80" y="125" font-family="sans-serif" font-size="13" text-anchor="middle">TypeScript</text>
    <rect x="20" y="150" width="120" height="40" rx="6" fill="white" stroke="#0ea5e9"/><text x="80" y="175" font-family="sans-serif" font-size="13" text-anchor="middle">Tailwind CSS</text>
    <rect x="20" y="200" width="120" height="40" rx="6" fill="white" stroke="#0ea5e9"/><text x="80" y="225" font-family="sans-serif" font-size="13" text-anchor="middle">Lucide Icons</text>
  </g>
  <g transform="translate(230, 80)">
    <rect width="160" height="380" rx="12" fill="#f3e8ff" stroke="#a855f7" stroke-width="1"/>
    <text x="80" y="30" font-family="sans-serif" font-weight="bold" font-size="16" text-anchor="middle" fill="#7e22ce">Backend</text>
    <rect x="20" y="50" width="120" height="40" rx="6" fill="white" stroke="#a855f7"/><text x="80" y="75" font-family="sans-serif" font-size="13" text-anchor="middle">Node.js</text>
    <rect x="20" y="100" width="120" height="40" rx="6" fill="white" stroke="#a855f7"/><text x="80" y="125" font-family="sans-serif" font-size="13" text-anchor="middle">Express</text>
    <rect x="20" y="150" width="120" height="40" rx="6" fill="white" stroke="#a855f7"/><text x="80" y="175" font-family="sans-serif" font-size="13" text-anchor="middle">Puppeteer</text>
  </g>
  <g transform="translate(410, 80)">
    <rect width="160" height="380" rx="12" fill="#dcfce7" stroke="#22c55e" stroke-width="1"/>
    <text x="80" y="30" font-family="sans-serif" font-weight="bold" font-size="16" text-anchor="middle" fill="#15803d">Persistence</text>
    <rect x="20" y="50" width="120" height="40" rx="6" fill="white" stroke="#22c55e"/><text x="80" y="75" font-family="sans-serif" font-size="13" text-anchor="middle">MariaDB</text>
    <rect x="20" y="100" width="120" height="40" rx="6" fill="white" stroke="#22c55e"/><text x="80" y="125" font-family="sans-serif" font-size="13" text-anchor="middle">Redis</text>
    <rect x="20" y="150" width="120" height="40" rx="6" fill="white" stroke="#22c55e"/><text x="80" y="175" font-family="sans-serif" font-size="13" text-anchor="middle">Local Storage</text>
  </g>
  <g transform="translate(590, 80)">
    <rect width="160" height="380" rx="12" fill="#fef2f2" stroke="#ef4444" stroke-width="1"/>
    <text x="80" y="30" font-family="sans-serif" font-weight="bold" font-size="16" text-anchor="middle" fill="#b91c1c">External</text>
    <rect x="20" y="50" width="120" height="40" rx="6" fill="white" stroke="#ef4444"/><text x="80" y="75" font-family="sans-serif" font-size="13" text-anchor="middle">Gemini AI</text>
    <rect x="20" y="100" width="120" height="40" rx="6" fill="white" stroke="#ef4444"/><text x="80" y="125" font-family="sans-serif" font-size="13" text-anchor="middle">Meta API</text>
    <rect x="20" y="150" width="120" height="40" rx="6" fill="white" stroke="#ef4444"/><text x="80" y="175" font-family="sans-serif" font-size="13" text-anchor="middle">Search Grounding</text>
  </g>
</svg>