<svg width="800" height="400" viewBox="0 0 800 400" fill="none" xmlns="http://www.w3.org/2000/svg">
  <rect width="800" height="400" fill="#0A0A0A"/>
  
  <!-- Master Manifest -->
  <rect x="50" y="150" width="180" height="100" rx="8" fill="#1A1A1A" stroke="#E8FF3C" stroke-width="2"/>
  <text x="140" y="190" fill="#E8FF3C" font-family="sans-serif" font-size="16" font-weight="bold" text-anchor="middle">MASTER MANIFEST</text>
  <text x="140" y="215" fill="#FFFFFF" font-family="sans-serif" font-size="12" text-anchor="middle">master.m3u8</text>

  <!-- Media Playlists -->
  <rect x="310" y="50" width="180" height="80" rx="8" fill="#1A1A1A" stroke="#FF6B35" stroke-width="2"/>
  <text x="400" y="85" fill="#FF6B35" font-family="sans-serif" font-size="14" font-weight="bold" text-anchor="middle">HIGH BITRATE</text>
  <text x="400" y="105" fill="#FFFFFF" font-family="sans-serif" font-size="10" text-anchor="middle">1080p / 320kbps</text>

  <rect x="310" y="160" width="180" height="80" rx="8" fill="#1A1A1A" stroke="#FF6B35" stroke-width="2"/>
  <text x="400" y="195" fill="#FF6B35" font-family="sans-serif" font-size="14" font-weight="bold" text-anchor="middle">MED BITRATE</text>
  <text x="400" y="215" fill="#FFFFFF" font-family="sans-serif" font-size="10" text-anchor="middle">720p / 192kbps</text>

  <rect x="310" y="270" width="180" height="80" rx="8" fill="#1A1A1A" stroke="#FF6B35" stroke-width="2"/>
  <text x="400" y="305" fill="#FF6B35" font-family="sans-serif" font-size="14" font-weight="bold" text-anchor="middle">LOW BITRATE</text>
  <text x="400" y="325" fill="#FFFFFF" font-family="sans-serif" font-size="10" text-anchor="middle">480p / 128kbps</text>

  <!-- Segments -->
  <rect x="570" y="150" width="180" height="100" rx="8" fill="#1A1A1A" stroke="#FFF" stroke-opacity="0.3" stroke-width="2"/>
  <text x="660" y="190" fill="#FFFFFF" font-family="sans-serif" font-size="16" font-weight="bold" text-anchor="middle">AUDIO SEGMENTS</text>
  <text x="660" y="215" fill="#FFFFFF" font-family="sans-serif" font-size="12" text-anchor="middle">.ts / .aac chunks</text>

  <!-- Connections -->
  <path d="M230 200 L310 90" stroke="#E8FF3C" stroke-width="1.5" stroke-dasharray="4 4"/>
  <path d="M230 200 L310 200" stroke="#E8FF3C" stroke-width="1.5" stroke-dasharray="4 4"/>
  <path d="M230 200 L310 310" stroke="#E8FF3C" stroke-width="1.5" stroke-dasharray="4 4"/>

  <path d="M490 90 L570 200" stroke="#FF6B35" stroke-width="1.5"/>
  <path d="M490 200 L570 200" stroke="#FF6B35" stroke-width="1.5"/>
  <path d="M490 310 L570 200" stroke="#FF6B35" stroke-width="1.5"/>
</svg>
