<svg width="800" height="450" xmlns="http://www.w3.org/2000/svg" font-family="sans-serif" font-size="12">
    <style>
        .table { fill: #f0f9ff; stroke: #0284c7; stroke-width: 1.5; }
        .header { fill: #e0f2fe; font-weight: bold; text-anchor: middle; }
        .col { text-anchor: start; }
        .pk { font-weight: bold; }
        .fk { font-style: italic; }
        .relation { stroke: #334155; stroke-width: 1.5; fill: none; }
        .label { fill: #475569; text-anchor: middle; font-size: 10px; }
        .crow { marker-end: url(#crow-foot); }
        .one { marker-start: url(#one-mark); }
    </style>
    <defs>
        <marker id="crow-foot" viewBox="0 0 10 10" refX="10" refY="5" markerWidth="10" markerHeight="10" orient="auto-start-reverse">
            <path d="M 0 0 L 10 5 L 0 10 L 2 5 Z" fill="#334155" />
            <path d="M 0 5 L 10 5" stroke="#334155" stroke-width="1"/>
        </marker>
        <marker id="one-mark" viewBox="0 0 10 10" refX="0" refY="5" markerWidth="10" markerHeight="10" orient="auto-start-reverse">
            <path d="M 2 0 L 2 10" stroke="#334155" stroke-width="2"/>
        </marker>
    </defs>

    <title>GhanaRide - Database Architecture</title>

    <!-- Users Table -->
    <g id="users">
        <rect class="table" x="20" y="150" width="180" height="120" rx="5"/>
        <rect class="header" x="20" y="150" width="180" height="25"/>
        <text x="110" y="168">users</text>
        <text class="col pk" x="30" y="190">user_id (PK)</text>
        <text class="col" x="30" y="205">full_name</text>
        <text class="col" x="30" y="220">email</text>
        <text class="col" x="30" y="235">phone_number</text>
        <text class="col" x="30" y="250">id_verified</text>
    </g>

    <!-- Vehicles Table -->
    <g id="vehicles">
        <rect class="table" x="310" y="20" width="180" height="140" rx="5"/>
        <rect class="header" x="310" y="20" width="180" height="25"/>
        <text x="400" y="38">vehicles</text>
        <text class="col pk" x="320" y="60">vehicle_id (PK)</text>
        <text class="col fk" x="320" y="75">owner_id (FK)</text>
        <text class="col" x="320" y="90">make, model, year</text>
        <text class="col" x="320" y="105">price_per_day</text>
        <text class="col" x="320" y="120">location</text>
        <text class="col" x="320" y="135">is_available</text>
    </g>

    <!-- Bookings Table -->
    <g id="bookings">
        <rect class="table" x="310" y="280" width="180" height="120" rx="5"/>
        <rect class="header" x="310" y="280" width="180" height="25"/>
        <text x="400" y="298">bookings</text>
        <text class="col pk" x="320" y="320">booking_id (PK)</text>
        <text class="col fk" x="320" y="335">user_id (FK)</text>
        <text class="col fk" x="320" y="350">vehicle_id (FK)</text>
        <text class="col" x="320" y="365">start_date, end_date</text>
        <text class="col" x="320" y="380">total_price</text>
    </g>
    
    <!-- Reviews Table -->
    <g id="reviews">
        <rect class="table" x="590" y="150" width="180" height="100" rx="5"/>
        <rect class="header" x="590" y="150" width="180" height="25"/>
        <text x="680" y="168">reviews</text>
        <text class="col pk" x="600" y="190">review_id (PK)</text>
        <text class="col fk" x="600" y="205">user_id (FK)</text>
        <text class="col fk" x="600" y="220">vehicle_id (FK)</text>
        <text class="col" x="600" y="235">rating, comment</text>
    </g>

    <!-- Relationships -->
    <path class="relation one crow" d="M 200 170 h 110" />
    <text class="label" x="255" y="165">(owner)</text>
    <path class="relation one crow" d="M 200 250 h 110" />
    <text class="label" x="255" y="265">(renter)</text>
    <path class="relation one crow" d="M 490 100 v 180" />
    <path class="relation one crow" d="M 200 220 h 390" />
    <path class="relation one crow" d="M 490 100 h 100" />

</svg>