<svg width="600" height="400" xmlns="http://www.w3.org/2000/svg" font-family="sans-serif" font-size="14">
    <style>
        .box { fill: #f0f4f8; stroke: #4a5568; stroke-width: 1.5; rx: 8; ry: 8; }
        .actor { fill: #e2e8f0; stroke: #2d3748; stroke-width: 1.5; }
        .api { fill: #dbeafe; stroke: #1e40af; stroke-width: 1.5; rx: 8; ry: 8; }
        .service { fill: #e0f2f1; stroke: #00796b; stroke-width: 1.5; rx: 8; ry: 8; }
        .arrow { stroke: #2d3748; stroke-width: 2; fill: none; marker-end: url(#arrowhead); }
        .label { fill: #1a202c; text-anchor: middle; }
        .desc { font-size: 11px; fill: #4a5568; text-anchor: middle; }
    </style>
    <defs>
        <marker id="arrowhead" viewBox="0 0 10 10" refX="8" refY="5" markerWidth="6" markerHeight="6" orient="auto-start-reverse">
            <path d="M 0 0 L 10 5 L 0 10 z" fill="#2d3748" />
        </marker>
    </defs>
    
    <title>GhanaRide - System Architecture</title>

    <!-- Actor -->
    <rect x="20" y="160" width="100" height="60" class="actor" />
    <text x="70" y="195" class="label">User</text>

    <!-- Main App -->
    <rect x="180" y="100" width="240" height="180" class="box" />
    <text x="300" y="130" class="label" font-weight="bold">GhanaRide Platform</text>
    <text x="300" y="150" class="desc">(React Frontend App in Browser)</text>
    <text x="300" y="190" class="label">Vehicle Search UI</text>
    <text x="300" y="210" class="label">State Management</text>
    <text x="300" y="230" class="label">AI Suggestion Service</text>

    <!-- Gemini API -->
    <rect x="480" y="40" width="100" height="60" class="api" />
    <text x="530" y="75" class="label">Gemini API</text>

    <!-- Geolocation Service -->
    <rect x="480" y="280" width="100" height="60" class="service" />
    <text x="530" y="315" class="label">Browser Geolocation</text>

    <!-- Arrows -->
    <path class="arrow" d="M 120 190 h 60" />
    <text x="150" y="185" class="desc">Interacts</text>

    <path class="arrow" d="M 420 210 q 30 -60 60 -140" />
    <text x="490" y="125" class="desc">API Request (Query, Location)</text>
    <path class="arrow" d="M 480 80 q -30 50 -60 100" />
    <text x="440" y="155" class="desc">API Response (Suggestions)</text>
    
    <path class="arrow" d="M 420 240 q 30 30 60 40" />
    <text x="485" y="270" class="desc">Request Location</text>
     <path class="arrow" d="M 480 280 q -30 -20 -60 -40" />
    <text x="440" y="255" class="desc">Return Coordinates</text>

</svg>