<svg width="800" height="500" viewBox="0 0 800 500" xmlns="http://www.w3.org/2000/svg" font-family="Inter, sans-serif" font-size="14px">
    <title>Techbridge AI Portal System Architecture</title>
    <style>
        .box { fill: #f0f4f8; stroke: #4a5568; stroke-width: 1.5; rx: 8; }
        .box-title { font-weight: bold; font-size: 16px; fill: #2d3748; }
        .component { fill: #ffffff; stroke: #cbd5e0; stroke-width: 1; rx: 4; }
        .component-text { fill: #4a5568; }
        .arrow { stroke: #718096; stroke-width: 2; marker-end: url(#arrowhead); }
        .arrow-label { fill: #718096; font-size: 12px; font-style: italic; }
        .user-icon { font-size: 48px; }
    </style>
    <defs>
        <marker id="arrowhead" viewBox="0 0 10 10" refX="8" refY="5" markerWidth="6" markerHeight="6" orient="auto-start-reverse">
            <path d="M 0 0 L 10 5 L 0 10 z" fill="#718096" />
        </marker>
    </defs>
    <g transform="translate(50, 200)">
        <text text-anchor="middle" y="-10" class="box-title">User</text>
        <text text-anchor="middle" y="30" class="user-icon">👤</text>
    </g>
    <rect x="200" y="80" width="200" height="340" class="box"/>
    <text x="300" y="110" text-anchor="middle" class="box-title">Web Browser</text>
    <rect x="220" y="140" width="160" height="260" class="component"/>
    <text x="300" y="165" text-anchor="middle" class="component-text" font-weight="bold">React SPA</text>
    <line x1="230" y1="175" x2="370" y2="175" stroke="#cbd5e0"/>
    <text x="230" y="200" class="component-text">• App.tsx (State)</text>
    <text x="230" y="225" class="component-text">• Header</text>
    <text x="230" y="250" class="component-text">• SearchBar</text>
    <text x="230" y="275" class="component-text">• CategoryFilters</text>
    <text x="230" y="300" class="component-text">• AppGrid</text>
    <text x="230" y="325" class="component-text">• AdminDashboard</text>
    <text x="230" y="350" class="component-text">• selfTests.ts</text>
    <text x="230" y="375" class="component-text">• ...other components</text>
    <g transform="translate(520, 190)">
      <rect x="0" y="0" width="220" height="120" class="box"/>
      <text x="110" y="30" text-anchor="middle" class="box-title">Browser Local Storage</text>
      <path d="M 20 50 H 200 M 20 85 H 200" stroke="#cbd5e0" />
      <text x="30" y="70" class="component-text">🔑 techbridge_theme</text>
      <text x="30" y="105" class="component-text">🔑 techbridge_auditLog</text>
    </g>
    <path class="arrow" d="M 120 225 H 200" />
    <text x="135" y="215" class="arrow-label">Interacts</text>
    <path class="arrow" d="M 400 250 C 450 250, 470 250, 520 250" />
    <text x="410" y="240" class="arrow-label">Reads/Writes</text>
</svg>