<svg xmlns="http://www.w3.org/2000/svg" viewBox="0 0 900 600">
  <rect width="900" height="600" fill="#ffffff" />
  <text x="450" y="40" font-family="Arial" font-size="24" text-anchor="middle" font-weight="bold">TalentVerify Database Schema</text>

  <!-- Users Table -->
  <g transform="translate(50, 80)">
    <rect width="180" height="140" fill="#e3f2fd" stroke="#1565c0" stroke-width="2" />
    <rect width="180" height="30" fill="#1565c0" />
    <text x="90" y="20" font-family="Arial" font-size="14" fill="white" text-anchor="middle" font-weight="bold">Users</text>
    <text x="10" y="50" font-family="Arial" font-size="12">PK id (INT)</text>
    <text x="10" y="70" font-family="Arial" font-size="12">email (TEXT)</text>
    <text x="10" y="90" font-family="Arial" font-size="12">password_hash (TEXT)</text>
    <text x="10" y="110" font-family="Arial" font-size="12">name (TEXT)</text>
    <text x="10" y="130" font-family="Arial" font-size="12">role (TEXT)</text>
  </g>

  <!-- Candidates Table -->
  <g transform="translate(300, 80)">
    <rect width="180" height="120" fill="#e3f2fd" stroke="#1565c0" stroke-width="2" />
    <rect width="180" height="30" fill="#1565c0" />
    <text x="90" y="20" font-family="Arial" font-size="14" fill="white" text-anchor="middle" font-weight="bold">Candidates</text>
    <text x="10" y="50" font-family="Arial" font-size="12">PK id (INT)</text>
    <text x="10" y="70" font-family="Arial" font-size="12">email (TEXT)</text>
    <text x="10" y="90" font-family="Arial" font-size="12">name (TEXT)</text>
    <text x="10" y="110" font-family="Arial" font-size="12">password_hash (TEXT)</text>
  </g>

  <!-- Roles Table -->
  <g transform="translate(550, 80)">
    <rect width="180" height="120" fill="#e3f2fd" stroke="#1565c0" stroke-width="2" />
    <rect width="180" height="30" fill="#1565c0" />
    <text x="90" y="20" font-family="Arial" font-size="14" fill="white" text-anchor="middle" font-weight="bold">Roles</text>
    <text x="10" y="50" font-family="Arial" font-size="12">PK id (INT)</text>
    <text x="10" y="70" font-family="Arial" font-size="12">title (TEXT)</text>
    <text x="10" y="90" font-family="Arial" font-size="12">department (TEXT)</text>
    <text x="10" y="110" font-family="Arial" font-size="12">status (TEXT)</text>
  </g>

  <!-- Applications Table -->
  <g transform="translate(300, 250)">
    <rect width="180" height="140" fill="#e8f5e9" stroke="#2e7d32" stroke-width="2" />
    <rect width="180" height="30" fill="#2e7d32" />
    <text x="90" y="20" font-family="Arial" font-size="14" fill="white" text-anchor="middle" font-weight="bold">Applications</text>
    <text x="10" y="50" font-family="Arial" font-size="12">PK id (INT)</text>
    <text x="10" y="70" font-family="Arial" font-size="12">FK candidate_id</text>
    <text x="10" y="90" font-family="Arial" font-size="12">FK role_id</text>
    <text x="10" y="110" font-family="Arial" font-size="12">status (TEXT)</text>
    <text x="10" y="130" font-family="Arial" font-size="12">scores (REAL)</text>
  </g>

  <!-- Audit Logs Table -->
  <g transform="translate(50, 250)">
    <rect width="180" height="140" fill="#fff3e0" stroke="#ef6c00" stroke-width="2" />
    <rect width="180" height="30" fill="#ef6c00" />
    <text x="90" y="20" font-family="Arial" font-size="14" fill="white" text-anchor="middle" font-weight="bold">Audit Logs</text>
    <text x="10" y="50" font-family="Arial" font-size="12">PK id (INT)</text>
    <text x="10" y="70" font-family="Arial" font-size="12">FK user_id</text>
    <text x="10" y="90" font-family="Arial" font-size="12">action (TEXT)</text>
    <text x="10" y="110" font-family="Arial" font-size="12">details (TEXT)</text>
    <text x="10" y="130" font-family="Arial" font-size="12">timestamp (DATETIME)</text>
  </g>

  <!-- Questionnaires -->
  <g transform="translate(550, 250)">
    <rect width="180" height="100" fill="#f3e5f5" stroke="#7b1fa2" stroke-width="2" />
    <rect width="180" height="30" fill="#7b1fa2" />
    <text x="90" y="20" font-family="Arial" font-size="14" fill="white" text-anchor="middle" font-weight="bold">Questionnaires</text>
    <text x="10" y="50" font-family="Arial" font-size="12">PK id (INT)</text>
    <text x="10" y="70" font-family="Arial" font-size="12">FK role_id</text>
    <text x="10" y="90" font-family="Arial" font-size="12">title (TEXT)</text>
  </g>

  <!-- Questions -->
  <g transform="translate(550, 400)">
    <rect width="180" height="120" fill="#f3e5f5" stroke="#7b1fa2" stroke-width="2" />
    <rect width="180" height="30" fill="#7b1fa2" />
    <text x="90" y="20" font-family="Arial" font-size="14" fill="white" text-anchor="middle" font-weight="bold">Questions</text>
    <text x="10" y="50" font-family="Arial" font-size="12">PK id (INT)</text>
    <text x="10" y="70" font-family="Arial" font-size="12">FK questionnaire_id</text>
    <text x="10" y="90" font-family="Arial" font-size="12">text (TEXT)</text>
    <text x="10" y="110" font-family="Arial" font-size="12">type (TEXT)</text>
  </g>

  <!-- Answers -->
  <g transform="translate(300, 420)">
    <rect width="180" height="140" fill="#e8f5e9" stroke="#2e7d32" stroke-width="2" />
    <rect width="180" height="30" fill="#2e7d32" />
    <text x="90" y="20" font-family="Arial" font-size="14" fill="white" text-anchor="middle" font-weight="bold">Answers</text>
    <text x="10" y="50" font-family="Arial" font-size="12">PK id (INT)</text>
    <text x="10" y="70" font-family="Arial" font-size="12">FK application_id</text>
    <text x="10" y="90" font-family="Arial" font-size="12">FK question_id</text>
    <text x="10" y="110" font-family="Arial" font-size="12">text_response (TEXT)</text>
    <text x="10" y="130" font-family="Arial" font-size="12">video_data (BLOB)</text>
  </g>

  <!-- Relationships -->
  <line x1="140" y1="220" x2="140" y2="250" stroke="#999" stroke-width="2" stroke-dasharray="5,5" />
  <line x1="390" y1="200" x2="390" y2="250" stroke="#999" stroke-width="2" />
  <line x1="640" y1="200" x2="640" y2="250" stroke="#999" stroke-width="2" />
  <line x1="480" y1="320" x2="550" y2="300" stroke="#999" stroke-width="2" />
  <line x1="640" y1="350" x2="640" y2="400" stroke="#999" stroke-width="2" />
  <line x1="390" y1="390" x2="390" y2="420" stroke="#999" stroke-width="2" />
  <line x1="480" y1="490" x2="550" y2="460" stroke="#999" stroke-width="2" />

</svg>
