<svg width="800" height="600" xmlns="http://www.w3.org/2000/svg" font-family="sans-serif" font-size="12">
    <style>
        .table { fill: #fffff0; stroke: #a0522d; stroke-width: 1.5; }
        .header { fill: #f5deb3; font-weight: bold; text-anchor: middle; }
        .col { text-anchor: start; }
        .pk { font-weight: bold; }
        .fk { font-style: italic; }
        .relation { stroke: #666; stroke-width: 1.5; fill: none; marker-end: url(#crow); marker-start: url(#one); }
        .label { fill: #333; text-anchor: middle; font-size: 10px; }
    </style>
    <defs>
        <marker id="crow" viewBox="0 0 10 10" refX="10" refY="5" markerWidth="10" markerHeight="10" orient="auto-start-reverse">
            <path d="M 0 0 L 10 5 L 0 10 L 2 5 Z" fill="#666" />
            <path d="M 0 5 L 10 5" stroke="#666" stroke-width="1"/>
        </marker>
        <marker id="one" viewBox="0 0 10 10" refX="0" refY="5" markerWidth="10" markerHeight="10" orient="auto-start-reverse">
            <path d="M 0 0 L 0 10" stroke="#666" stroke-width="2"/>
        </marker>
    </defs>

    <title>Database Architecture Diagram</title>

    <!-- Accounts Table -->
    <g id="accounts">
        <rect class="table" x="250" y="20" width="200" height="120" rx="5"/>
        <rect class="header" x="250" y="20" width="200" height="25"/>
        <text x="350" y="38">accounts</text>
        <text class="col pk" x="260" y="60">account_id (PK)</text>
        <text class="col" x="260" y="75">email_address</text>
        <text class="col" x="260" y="90">display_name</text>
        <text class="col" x="260" y="105">token_encrypted</text>
        <text class="col" x="260" y="120">is_default</text>
    </g>

    <!-- Drafts Table -->
    <g id="drafts">
        <rect class="table" x="20" y="200" width="200" height="140" rx="5"/>
        <rect class="header" x="20" y="200" width="200" height="25"/>
        <text x="120" y="218">drafts</text>
        <text class="col pk" x="30" y="240">draft_id (PK)</text>
        <text class="col fk" x="30" y="255">account_id (FK)</text>
        <text class="col" x="30" y="270">subject</text>
        <text class="col" x="30" y="285">body_html</text>
        <text class="col" x="30" y="300">recipients_to</text>
        <text class="col" x="30" y="315">attachments_json</text>
    </g>

    <!-- Sent History Table -->
    <g id="sent_history">
        <rect class="table" x="250" y="200" width="200" height="140" rx="5"/>
        <rect class="header" x="250" y="200" width="200" height="25"/>
        <text x="350" y="218">sent_history</text>
        <text class="col pk" x="260" y="240">message_id (PK)</text>
        <text class="col fk" x="260" y="255">account_id (FK)</text>
        <text class="col" x="260" y="270">subject</text>
        <text class="col" x="260" y="285">sent_at</text>
        <text class="col" x="260" y="300">status</text>
        <text class="col" x="260" y="315">error_message</text>
    </g>

    <!-- Contacts Table -->
    <g id="contacts">
        <rect class="table" x="480" y="200" width="200" height="120" rx="5"/>
        <rect class="header" x="480" y="200" width="200" height="25"/>
        <text x="580" y="218">contacts</text>
        <text class="col pk" x="490" y="240">contact_id (PK)</text>
        <text class="col" x="490" y="255">email</text>
        <text class="col" x="490" y="270">display_name</text>
        <text class="col" x="490" y="285">frequency_count</text>
        <text class="col" x="490" y="300">last_used</text>
    </g>
    
    <!-- Templates Table -->
    <g id="templates">
        <rect class="table" x="150" y="420" width="200" height="120" rx="5"/>
        <rect class="header" x="150" y="420" width="200" height="25"/>
        <text x="250" y="438">templates</text>
        <text class="col pk" x="160" y="460">template_id (PK)</text>
        <text class="col" x="160" y="475">template_name</text>
        <text class="col" x="160" y="490">subject</text>
        <text class="col" x="160" y="505">body_html</text>
        <text class="col" x="160" y="520">category</text>
    </g>

    <!-- Relationships -->
    <path class="relation" d="M 300 140 v 60" />
    <text class="label" x="280" y="180">has many</text>
    <path class="relation" d="M 350 140 v 60" />
    <text class="label" x="370" y="180">has many</text>
    <path class="relation" d="M 400 140 v 60" />
    <text class="label" x="420" y="180">has many</text>

</svg>